<svg width="685" height="160" viewBox="0 0 685 160" fill="none" xmlns="http://www.w3.org/2000/svg">
<path d="M172.64 79.4004C172.284 56.7224 190.422 37.5381 216.49 37.8938C223.163 37.8938 228.875 38.7097 233.686 40.467C238.603 42.0988 242.222 43.626 244.44 45.0277V58.5843C242.327 56.827 238.938 54.965 234.147 52.9776C229.356 50.8646 223.498 49.8185 216.49 49.8185C197.201 49.8185 185.862 62.7894 185.862 79.4004C185.862 95.8859 197.661 108.982 214.398 108.982C223.644 108.982 231.239 105.363 235.904 101.848V84.6515H212.159V72.7267H248.645V119.15H235.904V115.049C231.218 117.978 223.749 120.886 214.398 120.886C189.816 120.907 172.284 102.078 172.64 79.4004Z" fill="black"/>
<path d="M258.685 88.9884C258.685 71.3313 271.781 56.9588 290.254 56.9588C299.02 56.9588 306.384 60.3479 310.589 64.553V58.7161H323.1V119.156H310.359L310.485 112.963C306.51 117.064 300.087 120.913 290.254 120.913C271.781 120.913 258.685 106.645 258.685 88.9884ZM311.301 88.8837C311.301 75.7874 302.409 68.1932 291.196 68.1932C279.857 68.1932 271.321 77.4401 271.321 88.8837C271.321 100.348 279.857 109.7 291.196 109.7C302.409 109.7 311.301 102.085 311.301 88.8837Z" fill="black"/>
<path d="M430.902 81.9558V119.132H418.266V83.232C418.266 73.5248 414.752 68.0226 406.467 68.0226C398.873 68.0226 391.258 73.7549 391.258 85.0939V119.111H378.622V83.211C378.622 73.5038 375.107 68.0017 366.822 68.0017C359.814 68.0017 352.68 72.918 351.738 82.7298V119.09H339.102V58.6501H351.738V65.9096C352.45 64.2778 356.529 56.7882 368.684 56.7882C377.22 56.7882 383.893 60.1773 387.743 66.7255C390.546 61.4744 396.864 56.7882 408.329 56.7882C421.906 56.8091 430.902 65.3448 430.902 81.9558Z" fill="black"/>
<path d="M440.418 88.4825C440.418 70.8254 453.515 56.4529 471.988 56.4529C480.753 56.4529 488.118 59.842 492.323 64.0471V39.2561L504.959 37.1431V118.629H492.092L492.218 112.437C488.243 116.537 481.82 120.387 471.988 120.387C453.515 120.407 440.418 106.14 440.418 88.4825ZM493.034 88.3779C493.034 75.2815 484.143 67.6873 472.929 67.6873C461.59 67.6873 452.699 76.9342 452.699 88.3779C452.699 99.8424 461.59 109.194 472.929 109.194C484.143 109.194 493.034 101.579 493.034 88.3779Z" fill="black"/>
<path d="M515.317 88.9884C515.317 71.3313 530.046 56.9588 548.414 56.9588C566.761 56.9588 581.51 71.3313 581.51 88.9884C581.51 106.645 566.782 120.913 548.414 120.913C530.046 120.913 515.317 106.645 515.317 88.9884ZM569.335 88.9884C569.335 77.5238 560.339 68.2978 548.414 68.2978C536.489 68.2978 527.493 77.5447 527.493 88.9884C527.493 100.327 536.489 109.574 548.414 109.574C560.339 109.574 569.335 100.348 569.335 88.9884Z" fill="black"/>
<path d="M684.503 81.9558V119.132H671.867V83.232C671.867 73.5248 668.352 68.0226 660.067 68.0226C652.473 68.0226 644.858 73.7549 644.858 85.0939V119.111H632.222V83.211C632.222 73.5038 628.707 68.0017 620.423 68.0017C613.414 68.0017 606.28 72.918 605.339 82.7298V119.09H592.724V58.6501H605.36V65.9096C606.071 64.2778 610.151 56.7882 622.305 56.7882C630.841 56.7882 637.515 60.1773 641.364 66.7255C644.168 61.4744 650.486 56.7882 661.95 56.7882C675.507 56.8091 684.503 65.3448 684.503 81.9558Z" fill="black"/>
<path d="M63.503 99.2407H63.4821V138.676H63.503V99.2407Z" fill="#01D370"/>
<path d="M63.503 99.2407H63.4821V138.676H63.503V99.2407Z" fill="#01D370"/>
<path d="M60.2487 79.0747L20.7923 97.736C19.6207 98.3008 18.8676 99.5142 18.8676 100.832V137.067C18.8676 138.406 19.6207 139.598 20.7923 140.163L60.2697 158.845C61.2739 159.326 62.3617 159.557 63.4496 159.557V78.3425C62.3617 78.3634 61.2738 78.6144 60.2487 79.0747Z" fill="#00FF86"/>
<path d="M61.7161 0.418408L43.2013 9.58168V34.2053L21.5274 44.833V20.0002L2.113 29.6446C0.815912 30.2932 0 31.6112 0 33.0338V80.4819C0 83.2644 2.94982 85.1054 5.43938 83.8711L60.1052 57.0507C61.1721 56.5277 62.3228 56.2767 63.4734 56.2767V0C62.8667 0 62.26 0.146439 61.7161 0.418408Z" fill="#00FF86"/>
<path d="M106.16 97.7164L66.6826 79.0551C65.6574 78.553 64.5696 78.3229 63.4817 78.3438V159.558C64.5696 159.558 65.6993 159.328 66.7035 158.847L106.16 140.164C107.331 139.6 108.085 138.386 108.085 137.068V100.834C108.085 99.4946 107.331 98.2812 106.16 97.7164Z" fill="#01D370"/>
<path d="M124.859 29.6237L105.445 19.9793V44.8331L83.7499 34.2054V9.58168L65.2351 0.418408C64.6911 0.146439 64.0635 0 63.4777 0V56.2767C64.6283 56.2767 65.779 56.5487 66.8459 57.0508L121.512 83.8711C124.022 85.1054 126.951 83.2644 126.951 80.4819V33.0338C126.972 31.5902 126.156 30.2723 124.859 29.6237Z" fill="#01D370"/>
</svg>
