<svg width="720" height="160" viewBox="0 0 720 160" fill="none" xmlns="http://www.w3.org/2000/svg">
<path fill-rule="evenodd" clip-rule="evenodd" d="M114.494 152.988C154.531 152.988 186.988 120.532 186.988 80.4939C186.988 40.4562 154.531 8 114.494 8C74.4568 8 42 40.4562 42 80.4939C42 120.532 74.4568 152.988 114.494 152.988Z" fill="#FFC715"/>
<rect x="61.593" y="78.5346" width="105.802" height="35.2673" rx="17.6337" fill="white"/>
<path d="M73.3487 76.5753C73.3487 99.2999 91.7711 117.721 114.494 117.721C137.218 117.721 155.639 99.2999 155.639 76.5753C155.639 53.8508 137.218 35.4301 114.494 35.4301C91.7711 35.4301 73.3487 53.8508 73.3487 76.5753Z" fill="white"/>
<path d="M105.755 125.24C99.432 126.603 86.3378 125.24 80.469 113.649C74.5985 102.057 76.8555 92.0574 86.7905 94.5558C91.7999 95.8165 95.0116 93.7824 98.731 91.4267C102.237 89.2059 106.195 86.6995 112.535 86.3981V86.3718C112.673 86.3741 112.811 86.3774 112.947 86.3818C113.084 86.3774 113.222 86.3741 113.36 86.3718V86.3981C119.7 86.6995 123.658 89.2059 127.164 91.4267C130.883 93.7824 134.095 95.8165 139.104 94.5558C149.039 92.0574 151.296 102.057 145.426 113.649C139.557 125.24 126.463 126.603 120.14 125.24C117.268 124.62 115.188 124.235 112.947 124.149C110.707 124.235 108.627 124.62 105.755 125.24Z" fill="#EF941B"/>
<path d="M130.344 79.5126C130.344 83.0305 132.529 85.8823 135.227 85.8823C137.922 85.8823 140.109 83.0305 140.109 79.5126C140.109 75.998 137.922 73.1462 135.227 73.1462C132.529 73.1462 130.344 75.998 130.344 79.5126Z" fill="#3A434B"/>
<path d="M88.0044 79.5126C88.0044 83.0305 90.1914 85.8823 92.8865 85.8823C95.5848 85.8823 97.7701 83.0305 97.7701 79.5126C97.7701 75.998 95.5848 73.1462 92.8865 73.1462C90.1914 73.1462 88.0044 75.998 88.0044 79.5126Z" fill="#3A434B"/>
<path d="M123.996 99.8512C123.539 101.398 124.056 102.918 125.156 103.242C126.252 103.569 127.514 102.578 127.973 101.03C128.43 99.4815 127.913 97.9636 126.815 97.6379C126.675 97.5972 126.53 97.576 126.387 97.576C125.406 97.576 124.398 98.5027 123.996 99.8512Z" fill="#3A434B"/>
<path d="M99.1 97.6379C98.0024 97.962 97.483 99.4815 97.9422 101.029C98.403 102.578 99.6634 103.568 100.761 103.242C101.859 102.916 102.376 101.398 101.919 99.8513C101.518 98.5011 100.509 97.576 99.5299 97.576C99.385 97.576 99.24 97.5956 99.1 97.6379Z" fill="#3A434B"/>
<path d="M109.175 36.6318L114.13 42.5666L117.967 36.6644C117.967 36.6644 117.6 26.3876 122.347 19.4006C108.833 22.7084 109.175 36.6318 109.175 36.6318Z" fill="white"/>
<path d="M428.979 42.8735V76.8473C428.979 78.8974 428.898 80.9476 428.736 82.9977C428.573 85.0479 428.395 87.098 428.2 89.1481H428.395C429.401 87.7163 430.424 86.3007 431.464 84.9014C432.535 83.5021 433.672 82.1516 434.874 80.8499L450.122 64.2536H466.88L445.25 87.9278L468.196 118.826H451.048L435.361 96.7141L428.979 101.84V118.826H414.121V42.8735H428.979Z" fill="#323A42"/>
<path d="M564.702 64.2536V118.826H549.843V64.2536H564.702Z" fill="#323A42"/>
<path d="M557.297 42.8735C559.505 42.8735 561.405 43.3942 562.997 44.4355C564.588 45.4443 565.384 47.348 565.384 50.1466C565.384 52.9127 564.588 54.8327 562.997 55.9066C561.405 56.9479 559.505 57.4686 557.297 57.4686C555.056 57.4686 553.14 56.9479 551.548 55.9066C549.99 54.8327 549.21 52.9127 549.21 50.1466C549.21 47.348 549.99 45.4443 551.548 44.4355C553.14 43.3942 555.056 42.8735 557.297 42.8735Z" fill="#323A42"/>
<path d="M588.67 116.874C592.47 118.826 597.066 119.803 602.457 119.803C606.257 119.803 609.391 119.477 611.859 118.826C614.36 118.208 616.747 117.183 619.02 115.751V103.011C616.747 104.508 614.408 105.679 612.005 106.526C609.602 107.339 606.857 107.746 603.772 107.746C601.304 107.746 599.209 107.176 597.488 106.037C595.766 104.866 594.451 103.092 593.542 100.717C592.632 98.3412 592.178 95.3474 592.178 91.7352C592.178 88.058 592.6 84.9991 593.444 82.5584C594.289 80.1178 595.572 78.2954 597.293 77.0914C599.014 75.8548 601.174 75.2365 603.772 75.2365C605.786 75.2365 607.799 75.5456 609.813 76.1639C611.826 76.7497 614.002 77.5144 616.341 78.4581L620.725 66.9383C618.679 65.9295 616.276 65.0671 613.515 64.3512C610.787 63.6027 607.539 63.2285 603.772 63.2285C598.478 63.2285 593.818 64.221 589.791 66.2061C585.796 68.1911 582.662 71.2989 580.388 75.5293C578.148 79.7273 577.027 85.1618 577.027 91.8329C577.027 98.2762 578.018 103.564 579.999 107.697C581.98 111.83 584.87 114.889 588.67 116.874Z" fill="#323A42"/>
<path fill-rule="evenodd" clip-rule="evenodd" d="M667.152 66.1573C663.514 64.2048 659.178 63.2285 654.144 63.2285C649.013 63.2285 644.515 64.3024 640.65 66.4502C636.785 68.5654 633.765 71.7545 631.589 76.0175C629.445 80.2479 628.374 85.5523 628.374 91.9305C628.374 98.2111 629.559 103.418 631.93 107.551C634.333 111.683 637.63 114.759 641.819 116.776C646.041 118.794 650.88 119.803 656.337 119.803C660.526 119.803 664.082 119.494 667.005 118.875C669.961 118.257 672.786 117.281 675.482 115.946V104.427C672.429 105.858 669.457 106.932 666.567 107.648C663.676 108.364 660.494 108.722 657.019 108.722C652.829 108.722 649.549 107.534 647.178 105.159C644.84 102.751 643.589 99.4477 643.427 95.2498H678.551V88.0255C678.551 82.7211 677.56 78.2303 675.579 74.5531C673.598 70.8759 670.789 68.0772 667.152 66.1573ZM647.032 76.6032C648.948 74.7483 651.351 73.8209 654.242 73.8209C656.58 73.8209 658.496 74.3253 659.99 75.3341C661.517 76.3429 662.653 77.7097 663.4 79.4344C664.18 81.1591 664.586 83.1279 664.618 85.3407H643.768C644.06 81.3706 645.148 78.4581 647.032 76.6032Z" fill="#323A42"/>
<path fill-rule="evenodd" clip-rule="evenodd" d="M531.624 102.621C534.709 97.2185 536.252 90.4986 536.252 82.4608C536.252 74.8134 534.742 68.4027 531.721 63.2285C528.701 58.0218 524.446 54.1005 518.958 51.4646C513.469 48.7961 506.99 47.4619 499.52 47.4619H477.159V118.826H497.328C505.512 118.826 512.511 117.476 518.324 114.775C524.138 112.041 528.571 107.99 531.624 102.621ZM518.227 69.867C519.786 73.2514 520.565 77.5795 520.565 82.8513C520.565 90.6288 518.763 96.4863 515.158 100.424C511.585 104.361 506.113 106.33 498.74 106.33H492.261V59.8604H500.299C504.716 59.8604 508.419 60.6739 511.407 62.301C514.427 63.9281 516.7 66.4501 518.227 69.867Z" fill="#323A42"/>
<path d="M371.105 116.874C374.904 118.826 379.5 119.803 384.891 119.803C388.691 119.803 391.825 119.477 394.293 118.826C396.794 118.208 399.181 117.183 401.455 115.751V103.011C399.181 104.508 396.843 105.679 394.44 106.526C392.036 107.339 389.292 107.746 386.207 107.746C383.738 107.746 381.644 107.176 379.922 106.037C378.201 104.866 376.886 103.092 375.976 100.717C375.067 98.3412 374.612 95.3474 374.612 91.7352C374.612 88.058 375.034 84.9991 375.879 82.5584C376.723 80.1178 378.006 78.2954 379.727 77.0914C381.449 75.8548 383.608 75.2365 386.207 75.2365C388.22 75.2365 390.234 75.5456 392.247 76.1639C394.261 76.7497 396.437 77.5144 398.775 78.4581L403.16 66.9383C401.114 65.9295 398.71 65.0671 395.95 64.3512C393.222 63.6027 389.974 63.2285 386.207 63.2285C380.913 63.2285 376.252 64.221 372.225 66.2061C368.23 68.1911 365.096 71.2989 362.823 75.5293C360.582 79.7273 359.462 85.1618 359.462 91.8329C359.462 98.2762 360.452 103.564 362.433 107.697C364.414 111.83 367.305 114.889 371.105 116.874Z" fill="#323A42"/>
<path d="M347.185 64.2536V118.826H335.786L333.788 111.846H333.009C331.84 113.701 330.378 115.214 328.624 116.386C326.871 117.557 324.938 118.42 322.827 118.973C320.716 119.526 318.524 119.803 316.25 119.803C312.353 119.803 308.959 119.119 306.069 117.753C303.178 116.353 300.921 114.189 299.297 111.26C297.706 108.332 296.91 104.524 296.91 99.8382V64.2536H311.769V96.1284C311.769 100.033 312.467 102.978 313.863 104.964C315.26 106.949 317.485 107.941 320.537 107.941C323.558 107.941 325.929 107.258 327.65 105.891C329.371 104.492 330.573 102.458 331.255 99.7894C331.969 97.0884 332.327 93.8016 332.327 89.9292V64.2536H347.185Z" fill="#323A42"/>
<path fill-rule="evenodd" clip-rule="evenodd" d="M278.983 102.621C282.068 97.2185 283.611 90.4986 283.611 82.4608C283.611 74.8134 282.1 68.4027 279.08 63.2285C276.06 58.0218 271.805 54.1005 266.316 51.4646C260.828 48.7961 254.349 47.4619 246.879 47.4619H224.518V118.826H244.687C252.871 118.826 259.87 117.476 265.683 114.775C271.497 112.041 275.93 107.99 278.983 102.621ZM265.586 69.867C267.145 73.2514 267.924 77.5795 267.924 82.8513C267.924 90.6288 266.122 96.4863 262.517 100.424C258.944 104.361 253.472 106.33 246.099 106.33H239.62V59.8604H247.658C252.075 59.8604 255.778 60.6739 258.766 62.301C261.786 63.9281 264.059 66.4501 265.586 69.867Z" fill="#323A42"/>
</svg>
