<?xml version="1.0" encoding="UTF-8"?>
<svg id="Layer_2" data-name="Layer 2" xmlns="http://www.w3.org/2000/svg" viewBox="0 0 1064.2 454.72">
  <defs>
    <style>
      .cls-1 {
        fill: #fa0000;
      }

      .cls-1, .cls-2 {
        stroke-width: 0px;
      }

      .cls-2 {
        fill: #ffba2a;
      }
    </style>
  </defs>
  <g id="Layer_1-2" data-name="Layer 1">
    <g>
      <g>
        <path class="cls-1" d="m650.36,445.5c-.94,2.54-2.54,4.62-4.79,6.22-2.25,1.6-4.65,2.41-7.2,2.4l-31.38-.06c-2.55,0-4.33-.81-5.34-2.42-1.02-1.61-1.06-3.69-.12-6.23l38.55-104.52c.94-2.54,2.51-4.62,4.71-6.22,2.2-1.6,4.58-2.41,7.12-2.4l31.38.06c2.54,0,4.35.81,5.42,2.42,1.07,1.61,1.13,3.69.2,6.23l-10.45,28.33-10.9-.02,10.11-27.4-27.1-.05-37.86,102.65,27.1.05,11.05-29.96,10.9.02-11.4,30.9Z"/>
        <path class="cls-1" d="m715.56,454.27l-10.75-.02,5.71-27.09-24.22-.05-14.27,27.07-10.44-.02.11-.31,66.65-121.76,10.67.02-23.46,122.15Zm-2.92-36.69l13.67-66.02-35.09,65.98,21.42.04Z"/>
        <path class="cls-1" d="m780.89,445.75c-.94,2.54-2.5,4.62-4.67,6.22-2.17,1.6-4.53,2.41-7.08,2.4l-30.69-.06c-2.54,0-4.34-.81-5.38-2.42-1.04-1.61-1.09-3.69-.15-6.23l11.4-30.9,10.82.02-11.05,29.96,26.32.05,10.71-29.03-18.66-40.69c-1.3-2.81-1.33-5.89-.08-9.27l9.1-24.67c.94-2.54,2.52-4.62,4.75-6.22,2.23-1.6,4.62-2.41,7.16-2.4l30.69.06c2.54,0,4.31.81,5.3,2.42.99,1.61,1.02,3.69.08,6.23l-10.45,28.33-10.83-.02,10.11-27.4-26.32-.05-9.47,25.68,18.82,40.69c1.23,2.7,1.23,5.74-.01,9.11l-10.39,28.17Z"/>
        <path class="cls-1" d="m810.37,454.46l-10.83-.02,44.92-121.8,10.83.02-44.92,121.8Z"/>
        <path class="cls-1" d="m882.99,454.6h-7.48s.48-89.66.48-89.66l-33.04,89.58-10.2-.02,44.92-121.8,8.1.02-.54,88.08,32.47-88.02,10.2.02-44.92,121.8Z"/>
        <path class="cls-1" d="m957.12,446.09c-.94,2.54-2.52,4.62-4.75,6.22-2.22,1.6-4.62,2.41-7.16,2.4l-34.11-.07c-2.55,0-4.33-.81-5.34-2.42-1.01-1.61-1.05-3.69-.12-6.23l38.55-104.52c.94-2.54,2.51-4.62,4.71-6.22,2.2-1.6,4.58-2.41,7.12-2.4l34.11.07c2.54,0,4.34.81,5.38,2.42,1.04,1.61,1.09,3.69.16,6.23l-38.55,104.52Zm-10.48-.95l37.86-102.65-29.83-.06-37.86,102.65,29.83.06Z"/>
      </g>
      <polygon class="cls-1" points="441.24 375.72 429.32 409.55 485.61 409.66 497.53 375.83 441.24 375.72"/>
      <polygon class="cls-1" points="533.43 375.9 521.51 409.73 577.8 409.84 589.72 376.01 533.43 375.9"/>
      <g>
        <polygon class="cls-2" points="792.46 101.98 723.25 298.5 807.14 298.66 876.34 102.15 792.46 101.98"/>
        <path class="cls-2" d="m1007.92,150.58l39.33.08,16.96-48.15-39.33-.08c11.06-31.42,19.97-56.72,19.97-56.72l-83.38-.16-19.97,56.72-29.19-.06-17.02,48.15,29.25.06-30.72,87.24c-18.47,52.45,13.63,61.19,43,61.25,29.37.06,58.18.11,58.18.11l19.8-56.22-24.11-.05c-15.45-.03-11.4-10.85-7.68-21.42,1.55-4.41,12.59-35.75,24.92-70.76Z"/>
        <path class="cls-2" d="m689.5,157.05s68.09-18.79,68.19-71.56c.06-30.39-23.21-43.52-48.36-49.22L721.91.29l-56.64.59-11.16,31.69c-.32,0-.65,0-.96,0-6.84-.01-19.35-.73-34.29-.76L629.94.11l-56.58-.11-11.16,31.69c-18.71-.04-39.13-.08-39.13-.08l-93.78,266.32,39.7-.42-11.27,31.69,56.33.11,10.99-32.19,37.06.07-12.32,32.18,56.33.11,13.95-39.61c52.47.1,100.48-56.1,100.55-92.95.07-36.84-31.08-39.89-31.08-39.89Zm-57.56,52.61c-8.01,22.84-30.41,22.89-48.08,22.86-17.67-.03-40.58-.08-40.58-.08l15.24-45.87,38.62.07c14.94.03,42.81.18,34.8,23.02Zm-14.46-72.61l-41.5-.08,14.96-42.48s26.78.05,37.24.07,26.37.19,26.35,14.13c-.03,13.94-13.81,28.41-37.04,28.36Z"/>
        <g>
          <path class="cls-2" d="m387.86,98.22c-48.29-.09-85.2,35.18-85.2,35.18-.47-12.45-13.87-35.37-52.21-35.45-40.33-.08-79.72,35.19-79.72,35.19l11.02-32.34-72.43-.14-69.89,196.51,81.11.16,35.99-102.2c6.63-18.84,22.14-37.09,42.05-37.05s19.2,19.04,13.62,34.88c-5.58,15.83-36.79,104.48-36.79,104.48l80.35.16,37.32-105.97c4.44-12.6,18.51-33.81,42.91-33.77,24.39.05,18.01,23.42,14.33,33.88-3.68,10.46-37.32,105.97-37.32,105.97l80.35.16s33.95-96.41,47.24-134.13c13.28-37.72-4.41-65.42-52.7-65.51Z"/>
          <path class="cls-2" d="m387.86,98.22c-48.29-.09-85.2,35.18-85.2,35.18-.47-12.45-13.87-35.37-52.21-35.45-40.33-.08-79.72,35.19-79.72,35.19l11.02-32.34-72.43-.14-69.89,196.51,81.11.16,35.99-102.2c6.63-18.84,22.14-37.09,42.05-37.05s19.2,19.04,13.62,34.88c-5.58,15.83-36.79,104.48-36.79,104.48l80.35.16,37.32-105.97c4.44-12.6,18.51-33.81,42.91-33.77,24.39.05,18.01,23.42,14.33,33.88-3.68,10.46-37.32,105.97-37.32,105.97l80.35.16s33.95-96.41,47.24-134.13c13.28-37.72-4.41-65.42-52.7-65.51Z"/>
        </g>
        <polygon class="cls-2" points="823.49 13.76 804.32 68.2 888.4 68.36 907.57 13.92 823.49 13.76"/>
      </g>
      <polygon class="cls-1" points="365.97 375.57 27.79 374.92 11.91 374.89 0 408.72 14.19 408.75 354.06 409.4 393.23 409.48 406.06 375.65 365.97 375.57"/>
    </g>
  </g>
</svg>