<svg width="14" height="13" viewBox="0 0 14 13" fill="none" xmlns="http://www.w3.org/2000/svg">
<path d="M5.45415 7.8005L3.78184 7.20651C2.92801 6.90319 2.23133 6.30634 1.8203 5.52616C1.66506 5.23144 1.55209 4.91664 1.48426 4.59037L1.01495 2.32894C0.971486 2.11955 1.02379 1.90419 1.15873 1.73806C1.29367 1.57194 1.49358 1.47681 1.70757 1.47681H3.18595V1.95486H1.70757C1.63807 1.95486 1.57311 1.98569 1.5294 2.03971C1.48569 2.09373 1.4685 2.16353 1.48259 2.23165L1.95214 4.49308C2.01089 4.77561 2.10857 5.0481 2.24303 5.30315C2.59794 5.97696 3.20123 6.49302 3.94185 6.75595L5.61416 7.34993L5.45439 7.8005H5.45415Z" fill="#1C1C1C" stroke="#1C1C1C" stroke-width="0.2" stroke-miterlimit="10" stroke-linejoin="round"/>
<path d="M8.5465 7.8005L8.38672 7.34993L10.059 6.75595C10.7997 6.49302 11.4029 5.97696 11.7578 5.30315C11.8921 5.0481 11.99 4.77561 12.0485 4.49308L12.5181 2.23165C12.5321 2.16353 12.5152 2.09373 12.4712 2.03971C12.4273 1.98569 12.3623 1.95486 12.2931 1.95486H10.8147V1.47681H12.2931C12.5068 1.47681 12.707 1.57194 12.8419 1.73806C12.9769 1.90419 13.0294 2.11931 12.9857 2.32894L12.5161 4.59037C12.4486 4.91664 12.3353 5.23144 12.1803 5.52616C11.7693 6.30658 11.0726 6.90319 10.2188 7.20651L8.5465 7.8005Z" fill="#1C1C1C" stroke="#1C1C1C" stroke-width="0.2" stroke-miterlimit="10" stroke-linejoin="round"/>
<path d="M7.74736 9.12921V6.17102H6.23985V9.12921C6.23985 9.35892 6.11995 9.57189 5.92363 9.69093L5.16319 10.1522C4.70893 10.4278 4.43164 10.9207 4.43164 11.4523V11.7439H9.55533V11.4523C9.55533 10.9207 9.27804 10.4278 8.82378 10.1522L8.06334 9.69093C7.86702 9.57189 7.74712 9.35892 7.74712 9.12921H7.74736Z" fill="#FF9500" stroke="#1C1C1C" stroke-width="0.4" stroke-miterlimit="10" stroke-linejoin="round"/>
<path d="M10.6005 12.3886C10.6015 12.7403 10.2977 13.0002 9.94601 13.0002H4.05143C3.70082 13.0002 3.39941 12.7392 3.40041 12.3886C3.40108 12.0513 3.69094 11.8002 4.02827 11.8002H9.96918C10.3075 11.8002 10.5995 12.0503 10.6005 12.3886Z" fill="#1C1C1C"/>
<path d="M6.92699 8.1993C4.95065 8.1993 3.31201 6.66714 3.17779 4.69373L2.93848 1.17191C4.08511 1.07272 5.32108 1.00866 6.63633 1.00053C8.17227 0.990971 9.60407 1.05838 10.9155 1.17215C10.8357 2.34601 10.756 3.52011 10.6762 4.69397C10.542 6.66738 8.90334 8.19954 6.92699 8.19954V8.1993Z" fill="#F7931A" stroke="#1C1C1C" stroke-width="0.4" stroke-miterlimit="10" stroke-linejoin="round"/>
</svg>
