<svg width="720" height="152" viewBox="0 0 720 152" fill="none" xmlns="http://www.w3.org/2000/svg">
<path d="M188.233 111.45V42.4917H221.55C226.457 42.4917 230.751 43.2988 234.431 44.913C238.112 46.4626 240.953 48.6579 242.954 51.4989C244.956 54.3399 245.957 57.6329 245.957 61.3778C245.957 64.7354 245.021 67.7055 243.148 70.2883C241.276 72.871 238.887 74.6466 235.981 75.6151V76.5837C239.468 77.5522 242.309 79.4892 244.504 82.3948C246.764 85.3004 247.894 88.6902 247.894 92.5643C247.894 96.3738 246.861 99.6991 244.795 102.54C242.728 105.381 239.791 107.576 235.981 109.126C232.172 110.676 227.749 111.45 222.712 111.45H188.233ZM218.741 70.7725C221.905 70.7725 224.488 70.03 226.49 68.5449C228.491 67.0599 229.492 65.1228 229.492 62.7338C229.492 60.3448 228.491 58.4077 226.49 56.9226C224.488 55.4376 221.905 54.695 218.741 54.695H204.31V70.7725H218.741ZM219.419 99.2471C222.906 99.2471 225.779 98.44 228.039 96.8258C230.299 95.147 231.429 93.0163 231.429 90.4335C231.429 87.9154 230.299 85.8492 228.039 84.235C225.779 82.5562 222.906 81.7168 219.419 81.7168H204.31V99.2471H219.419ZM261.328 54.9856C258.809 54.9856 256.743 54.2108 255.129 52.6611C253.515 51.0469 252.708 49.013 252.708 46.5595C252.708 44.1059 253.515 42.1042 255.129 40.5546C256.743 38.9404 258.809 38.1333 261.328 38.1333C263.846 38.1333 265.912 38.9404 267.526 40.5546C269.14 42.1042 269.947 44.1059 269.947 46.5595C269.947 49.013 269.14 51.0469 267.526 52.6611C265.912 54.2108 263.846 54.9856 261.328 54.9856ZM268.495 111.45H254.161V61.8621H268.495V111.45ZM297.21 113C292.238 113 288.267 111.386 285.297 108.158C282.327 104.929 280.842 100.7 280.842 95.4699V72.3222H273.868V61.8621H281.229L284.038 46.172H295.273L295.176 61.8621H306.508V72.3222H295.176V94.8887C295.176 97.0195 295.757 98.7305 296.919 100.022C298.146 101.249 299.76 101.862 301.762 101.862C303.247 101.862 304.958 101.636 306.895 101.184V111.45C305.539 111.902 303.957 112.258 302.149 112.516C300.341 112.839 298.695 113 297.21 113ZM336.406 113C331.176 113 326.527 111.902 322.459 109.707C318.391 107.512 315.195 104.413 312.87 100.409C310.611 96.4061 309.481 91.8218 309.481 86.6563C309.481 81.4263 310.611 76.8419 312.87 72.9033C315.13 68.9 318.294 65.8008 322.362 63.6055C326.43 61.4101 331.111 60.3125 336.406 60.3125C340.861 60.3125 344.896 61.1196 348.512 62.7338C352.193 64.2834 355.195 66.511 357.519 69.4166C359.844 72.3222 361.264 75.712 361.781 79.5861L348.415 81.3294C347.77 78.6176 346.317 76.4222 344.057 74.7435C341.862 73.0001 339.376 72.1285 336.599 72.1285C332.919 72.1285 329.852 73.4844 327.398 76.1962C325.009 78.9081 323.815 82.3948 323.815 86.6563C323.815 90.9178 325.009 94.4045 327.398 97.1163C329.787 99.8282 332.822 101.184 336.502 101.184C339.343 101.184 341.862 100.345 344.057 98.666C346.252 96.9226 347.705 94.7273 348.415 92.08L361.878 93.7265C361.297 97.6006 359.812 100.99 357.423 103.896C355.098 106.802 352.096 109.061 348.415 110.676C344.799 112.225 340.796 113 336.406 113ZM393.382 113C387.894 113 383.083 111.935 378.951 109.804C374.819 107.609 371.59 104.542 369.266 100.603C367.006 96.5998 365.876 91.9509 365.876 86.6563C365.876 81.3617 367.006 76.7451 369.266 72.8064C371.59 68.8032 374.819 65.7362 378.951 63.6055C383.083 61.4101 387.894 60.3125 393.382 60.3125C398.806 60.3125 403.584 61.4101 407.716 63.6055C411.913 65.7362 415.141 68.8032 417.401 72.8064C419.726 76.7451 420.888 81.3617 420.888 86.6563C420.888 91.9509 419.726 96.5998 417.401 100.603C415.141 104.542 411.913 107.609 407.716 109.804C403.584 111.935 398.806 113 393.382 113ZM393.382 100.797C397.191 100.797 400.323 99.4731 402.777 96.8258C405.23 94.1785 406.457 90.7887 406.457 86.6563C406.457 82.5239 405.23 79.1664 402.777 76.5837C400.323 73.9364 397.191 72.6127 393.382 72.6127C389.508 72.6127 386.344 73.9364 383.89 76.5837C381.437 79.1664 380.21 82.5239 380.21 86.6563C380.21 90.7887 381.437 94.1785 383.89 96.8258C386.344 99.4731 389.508 100.797 393.382 100.797ZM434.33 54.9856C431.812 54.9856 429.746 54.2108 428.132 52.6611C426.517 51.0469 425.71 49.013 425.71 46.5595C425.71 44.1059 426.517 42.1042 428.132 40.5546C429.746 38.9404 431.812 38.1333 434.33 38.1333C436.848 38.1333 438.914 38.9404 440.529 40.5546C442.143 42.1042 442.95 44.1059 442.95 46.5595C442.95 49.013 442.143 51.0469 440.529 52.6611C438.914 54.2108 436.848 54.9856 434.33 54.9856ZM441.497 111.45H427.163V61.8621H441.497V111.45ZM450.067 111.45V61.8621H464.401V68.8355H465.37C469.05 63.218 473.86 60.4093 479.801 60.4093C483.481 60.4093 486.742 61.3133 489.583 63.1212C492.424 64.8645 494.619 67.3181 496.169 70.482C497.718 73.5812 498.493 77.1002 498.493 81.0389V111.45H484.159V83.0728C484.159 79.9735 483.32 77.4876 481.641 75.6151C479.962 73.6781 477.702 72.7096 474.861 72.7096C471.956 72.7096 469.47 73.7427 467.404 75.8088C465.402 77.875 464.401 80.4578 464.401 83.557V111.45H450.067ZM511.999 112.613C509.545 112.613 507.511 111.87 505.897 110.385C504.347 108.835 503.573 106.866 503.573 104.477C503.573 102.088 504.347 100.151 505.897 98.666C507.511 97.1163 509.545 96.3415 511.999 96.3415C514.452 96.3415 516.454 97.1163 518.004 98.666C519.553 100.151 520.328 102.088 520.328 104.477C520.328 106.866 519.553 108.835 518.004 110.385C516.454 111.87 514.452 112.613 511.999 112.613ZM549.727 113C544.497 113 539.848 111.902 535.78 109.707C531.712 107.512 528.516 104.413 526.191 100.409C523.932 96.4061 522.802 91.8218 522.802 86.6563C522.802 81.4263 523.932 76.8419 526.191 72.9033C528.451 68.9 531.615 65.8008 535.683 63.6055C539.751 61.4101 544.432 60.3125 549.727 60.3125C554.182 60.3125 558.217 61.1196 561.833 62.7338C565.513 64.2834 568.516 66.511 570.84 69.4166C573.165 72.3222 574.585 75.712 575.102 79.5861L561.736 81.3294C561.091 78.6176 559.638 76.4222 557.378 74.7435C555.183 73.0001 552.697 72.1285 549.92 72.1285C546.24 72.1285 543.173 73.4844 540.719 76.1962C538.33 78.9081 537.136 82.3948 537.136 86.6563C537.136 90.9178 538.33 94.4045 540.719 97.1163C543.108 99.8282 546.143 101.184 549.823 101.184C552.664 101.184 555.183 100.345 557.378 98.666C559.573 96.9226 561.026 94.7273 561.736 92.08L575.199 93.7265C574.618 97.6006 573.132 100.99 570.743 103.896C568.419 106.802 565.417 109.061 561.736 110.676C558.12 112.225 554.117 113 549.727 113ZM606.703 113C601.215 113 596.404 111.935 592.272 109.804C588.14 107.609 584.911 104.542 582.587 100.603C580.327 96.5998 579.197 91.9509 579.197 86.6563C579.197 81.3617 580.327 76.7451 582.587 72.8064C584.911 68.8032 588.14 65.7362 592.272 63.6055C596.404 61.4101 601.215 60.3125 606.703 60.3125C612.127 60.3125 616.905 61.4101 621.037 63.6055C625.234 65.7362 628.462 68.8032 630.722 72.8064C633.047 76.7451 634.209 81.3617 634.209 86.6563C634.209 91.9509 633.047 96.5998 630.722 100.603C628.462 104.542 625.234 107.609 621.037 109.804C616.905 111.935 612.127 113 606.703 113ZM606.703 100.797C610.512 100.797 613.644 99.4731 616.098 96.8258C618.551 94.1785 619.778 90.7887 619.778 86.6563C619.778 82.5239 618.551 79.1664 616.098 76.5837C613.644 73.9364 610.512 72.6127 606.703 72.6127C602.829 72.6127 599.665 73.9364 597.211 76.5837C594.758 79.1664 593.531 82.5239 593.531 86.6563C593.531 90.7887 594.758 94.1785 597.211 96.8258C599.665 99.4731 602.829 100.797 606.703 100.797ZM639.903 111.45V61.8621H654.14V69.2229H655.109C656.529 66.511 658.498 64.348 661.017 62.7338C663.535 61.1196 666.344 60.3125 669.443 60.3125C672.671 60.3125 675.674 61.1841 678.45 62.9275C681.291 64.6063 683.357 66.8661 684.649 69.7071H685.617C687.167 66.8016 689.265 64.5417 691.913 62.9275C694.624 61.2487 697.724 60.4093 701.21 60.4093C704.826 60.4093 708.055 61.281 710.896 63.0243C713.737 64.7031 715.964 67.0921 717.578 70.1914C719.193 73.2907 720 76.8096 720 80.7483V111.45H705.666V83.1696C705.666 80.1349 704.794 77.649 703.051 75.712C701.307 73.7104 699.08 72.6773 696.368 72.6127C693.591 72.6127 691.299 73.6135 689.491 75.6151C687.748 77.5522 686.876 80.0703 686.876 83.1696V111.45H672.445V83.1696C672.445 79.9412 671.638 77.3908 670.024 75.5183C668.41 73.5812 666.247 72.6127 663.535 72.6127C660.694 72.6127 658.434 73.5812 656.755 75.5183C655.076 77.4553 654.237 80.0058 654.237 83.1696V111.45H639.903Z" fill="#1C1C1C"/>
<path d="M0 33.68C0 15.0791 15.0791 0 33.68 0H117.574C136.175 0 151.254 15.0791 151.254 33.68V117.574C151.254 136.175 136.175 151.254 117.574 151.254H33.68C15.0791 151.254 0 136.175 0 117.574V33.68Z" fill="#FF9500"/>
<path d="M114.715 62.9934C116.466 51.2672 107.542 44.9642 95.3347 40.7562L99.2979 24.8673L89.6303 22.4549L85.776 37.9176C83.2366 37.2828 80.6248 36.6842 78.031 36.0947L81.9126 20.5232L72.245 18.1108L68.2818 33.9907C65.9874 33.4647 48.7834 29.1569 48.7834 29.1569L46.2078 39.4865C46.2078 39.4865 53.3996 41.2731 53.2272 41.2278C57.1451 42.2072 58.2243 44.8735 57.7345 46.8506L46.8789 90.3638C46.5706 91.5971 45.183 93.3384 42.4442 92.6582C42.6437 92.7036 35.4157 90.9079 35.4157 90.9079L30.6182 101.972L50.0984 106.888L46.099 122.958L55.7575 125.37L59.7207 109.472C62.3597 110.189 64.9172 110.851 67.4293 111.476L63.4843 127.302L73.1519 129.714L77.1513 113.68C93.6388 116.8 106.036 115.539 111.26 100.63C115.468 88.6225 111.051 81.6938 102.372 77.1774C108.693 75.7173 113.446 71.5637 114.715 62.9844V62.9934ZM92.6231 93.9732C89.6303 105.981 69.4154 99.4872 62.8585 97.8639L68.173 76.5788C74.7299 78.2113 95.7428 81.4489 92.6231 93.9732ZM95.6159 62.8211C92.8861 73.7402 76.063 68.19 70.6035 66.8296L75.4191 47.5217C80.8787 48.882 98.4545 51.4214 95.6159 62.8121V62.8211Z" fill="white"/>
</svg>
