<svg width="720" height="160" viewBox="0 0 720 160" fill="none" xmlns="http://www.w3.org/2000/svg">
<path d="M138.051 56.0602C137.826 55.6655 137.713 55.2708 137.713 54.8761C137.713 54.4814 137.826 54.0303 138.051 53.692C141.488 47.7151 142.615 40.3286 140.192 32.5474C137.713 24.7098 131.289 18.3946 123.457 16.1392C112.864 13.038 102.89 16.5339 96.6356 23.4693C96.3538 23.8076 96.0157 24.0332 95.6213 24.1459C95.2268 24.2587 94.8324 24.3151 94.3816 24.1459C86.2676 22.116 77.59 21.383 68.6871 22.3416C65.3626 22.6799 62.1508 23.3002 58.9953 24.0896C58.4882 24.2023 57.981 24.1459 57.5303 23.9768C57.2485 23.864 56.9668 23.6385 56.7414 23.4129C50.4305 16.5339 40.5133 13.038 29.9763 16.1392C22.1439 18.451 15.664 24.7098 13.1847 32.491C10.7617 40.2158 11.8323 47.6023 15.2132 53.5792C15.4386 53.9175 15.5513 54.3686 15.5513 54.7633C15.5513 55.2144 15.4386 55.6091 15.2132 56.0038C9.52207 64.9691 5.69042 75.2877 4.45077 86.2828C4.16904 88.9894 4 91.6395 4 94.2332C4 103.593 7.3245 112.107 12.9029 118.817C20.2281 127.557 31.2722 133.083 43.4997 133.083H110.779C123.682 133.083 135.121 126.655 142.164 116.787C146.616 110.529 149.264 102.917 149.264 94.6843C149.264 80.5315 145.207 67.3373 138.22 56.1729L138.051 56.0602ZM60.0659 90.6245C60.0659 93.9513 58.5445 96.8833 56.2343 98.9132C54.3748 100.492 51.9519 101.451 49.3035 101.451H37.9213C33.3571 101.451 29.8636 98.8004 28.1731 95.3045C26.37 91.4703 26.7645 86.6212 30.3144 83.0689L41.6966 71.679C45.0775 68.2958 49.5852 67.7884 53.3605 69.3108C57.1358 70.8332 60.1222 74.4419 60.1222 79.291V90.6809L60.0659 90.6245ZM92.1277 111.882C88.2398 116.111 82.6613 118.705 76.4631 118.705C70.2648 118.705 64.6864 116.054 60.7984 111.882C59.9532 110.98 59.8969 109.796 60.404 108.837C60.8548 108.048 61.6437 107.427 62.7143 107.427H90.2119C91.3389 107.427 92.2404 108.104 92.6348 109.006C93.0293 109.908 92.9166 110.98 92.1277 111.826V111.882ZM124.753 95.2481C123.119 98.744 119.625 101.394 115.005 101.394H103.623C99.9037 101.394 96.6355 99.5334 94.7197 96.6578C93.5364 94.9098 92.8603 92.88 92.8603 90.6245V79.2347C92.8603 74.1599 96.1284 70.3821 100.242 69.0288C103.848 67.7884 108.074 68.465 111.286 71.6226L122.668 83.0125C126.218 86.5648 126.612 91.4139 124.753 95.2481Z" fill="#1FE88A"/>
<path d="M187.363 119.715V36.6113H226.13C233.635 36.6113 239.786 38.6988 244.639 42.9301C249.436 47.1615 251.862 52.634 251.862 59.2913C251.862 65.9487 248.533 72.7188 241.874 76.8373C246.558 78.5298 250.113 81.1251 252.539 84.623C254.966 88.1209 256.207 92.1266 256.207 96.5836C256.207 103.41 253.837 108.939 249.04 113.227C244.244 117.515 238.037 119.659 230.362 119.659H187.363V119.715ZM203.897 71.4776H223.929C227.259 71.4776 229.911 70.5185 231.886 68.6567C233.804 66.7385 234.82 64.2561 234.82 61.1531C234.82 58.0501 233.748 55.4549 231.604 53.5931C229.459 51.7313 226.694 50.8287 223.365 50.8287H203.953V71.534L203.897 71.4776ZM203.897 105.554H227.654C230.926 105.554 233.579 104.595 235.61 102.733C237.642 100.815 238.657 98.389 238.657 95.3424C238.657 92.2958 237.642 89.4749 235.667 87.5003C233.692 85.5257 231.039 84.5101 227.71 84.5101H203.953V105.554H203.897Z" fill="#08182B"/>
<path d="M549.391 59.6725C556.275 59.6725 561.804 61.7625 566.148 65.9988C570.436 70.1786 572.58 75.8269 572.58 82.7745V119.715H556.839V86.7849C556.839 82.831 555.71 79.7243 553.453 77.5215C551.197 75.3186 548.263 74.1889 544.708 74.1889C541.154 74.1889 537.994 75.3186 535.455 77.5215C532.916 79.7243 531.675 82.831 531.675 86.7283V119.659H515.99V60.8022H530.941L531.223 67.5803C532.916 65.2645 535.342 63.4005 538.502 61.8754C541.661 60.3503 545.272 59.5596 549.335 59.5596L549.391 59.6725Z" fill="#08182B"/>
<path d="M488.786 60.967L488.504 67.2293C484.161 62.2646 477.789 59.7822 469.386 59.7822C460.983 59.7822 454.216 62.6595 448.915 68.4705C443.614 74.2251 440.963 81.5594 440.907 90.4169C440.907 99.2745 443.557 106.609 448.915 112.363C454.216 118.118 461.04 121.052 469.386 121.052C477.732 121.052 484.161 118.569 488.504 113.605L488.786 119.867H504.181V61.0798H488.786V60.967ZM484.048 102.039C481.003 105.255 477.225 106.834 472.657 106.834C468.089 106.834 464.254 105.255 461.265 102.039C458.276 98.8796 456.81 94.9303 456.754 90.3041C456.754 85.6779 458.276 81.785 461.265 78.5692C464.254 75.3534 468.089 73.7738 472.657 73.7738C477.225 73.7738 481.003 75.3534 484.048 78.5692C487.037 81.7286 488.56 85.6779 488.616 90.3041C488.616 94.9303 487.094 98.8231 484.048 102.039Z" fill="#08182B"/>
<path d="M699.775 60.967L699.493 67.2293C695.151 62.2646 688.778 59.7822 680.375 59.7822C671.973 59.7822 665.205 62.6595 659.904 68.4705C654.603 74.2251 651.953 81.5594 651.896 90.4169C651.896 99.2745 654.547 106.609 659.904 112.363C665.205 118.118 672.029 121.052 680.375 121.052C688.722 121.052 695.151 118.569 699.493 113.605L699.775 119.867H715.171V61.0798H699.775V60.967ZM695.038 102.039C691.993 105.255 688.214 106.834 683.646 106.834C679.078 106.834 675.244 105.255 672.255 102.039C669.266 98.8796 667.799 94.9303 667.743 90.3041C667.743 85.6779 669.266 81.785 672.255 78.5692C675.244 75.3534 679.078 73.7738 683.646 73.7738C688.214 73.7738 691.993 75.3534 695.038 78.5692C698.027 81.7286 699.55 85.6779 699.606 90.3041C699.606 94.9303 698.083 98.8231 695.038 102.039Z" fill="#08182B"/>
<path d="M628.48 36.6113V68.1071C624.025 62.5756 617.539 59.7534 609.08 59.7534C600.621 59.7534 593.91 62.6321 588.609 68.3329C583.308 74.0338 580.601 81.3715 580.601 90.3461C580.601 99.3208 583.251 106.602 588.609 112.359C593.91 118.117 600.734 121.052 609.08 121.052C617.426 121.052 623.855 118.568 628.198 113.601L628.48 119.866H643.875V36.7242H628.48V36.6113ZM623.743 102.087C620.697 105.304 616.919 106.884 612.351 106.884C607.783 106.884 603.948 105.304 600.959 102.087C597.97 98.8692 596.448 94.9181 596.448 90.2332C596.448 85.5484 597.914 81.5408 600.903 78.4364C603.892 75.332 607.67 73.808 612.351 73.808C617.032 73.808 620.754 75.3884 623.799 78.4929C626.844 81.5973 628.311 85.5484 628.311 90.2332C628.311 94.9181 626.788 98.8692 623.743 102.087Z" fill="#08182B"/>
<path d="M320.606 80.4312C319.533 75.9301 317.67 72.2166 315.072 69.2346C312.475 66.2526 309.256 63.9458 305.416 62.2579C301.576 60.5699 297.397 59.7822 292.88 59.7822C284.07 59.7822 276.842 62.6517 271.195 68.3344C265.492 74.0171 262.668 81.3314 262.668 90.3337C262.668 99.336 265.774 106.875 271.986 112.446C278.198 118.016 286.499 120.829 296.833 120.829C307.167 120.829 310.724 119.422 316.597 116.609V102.768C310.385 105.694 303.835 107.1 296.889 107.1C289.943 107.1 287.684 106.088 284.409 104.062C281.078 102.037 279.045 98.9984 278.31 95.0036H320.832C321.792 89.7711 321.679 84.8761 320.606 80.4312ZM283.054 76.2114C285.708 74.0733 289.153 72.9481 293.275 72.9481C297.397 72.9481 300.39 74.0171 302.818 76.2114C304.964 78.0681 306.15 80.4875 306.602 83.3007H278.819C279.383 80.4875 280.739 78.1244 283.11 76.2114H283.054Z" fill="#08182B"/>
<path d="M386.344 144V112.504C390.799 118.036 397.284 120.858 405.744 120.858C414.203 120.858 420.914 117.979 426.215 112.278C431.516 106.578 434.223 99.2398 434.223 90.2652C434.223 81.2906 431.572 74.0093 426.215 68.252C420.914 62.4947 414.09 59.5596 405.744 59.5596C397.397 59.5596 390.968 62.0431 386.626 67.0102L386.344 60.7449H370.948V143.887H386.344V144ZM391.081 78.5248C394.126 75.3075 397.905 73.727 402.473 73.727C407.041 73.727 410.875 75.3075 413.864 78.5248C416.853 81.7421 418.376 85.6932 418.376 90.378C418.376 95.0629 416.91 99.0705 413.921 102.175C410.932 105.279 407.153 106.803 402.473 106.803C397.792 106.803 394.07 105.223 391.025 102.118C387.979 99.014 386.513 95.0629 386.513 90.378C386.513 85.6932 388.036 81.7421 391.081 78.5248Z" fill="#08182B"/>
<path d="M361.813 106.011C359.121 106.631 356.485 106.969 353.905 106.969C351.325 106.969 349.081 106.236 347.567 104.771C346.052 103.307 345.267 101.109 345.267 98.1231V73.9525H361.813V60.9376H344.874V47.5283H329.73V100.377C329.73 107.081 331.581 112.209 335.452 115.645C339.322 119.082 344.538 120.829 351.156 120.829C357.775 120.829 358.672 120.378 361.813 119.589V105.898V106.011Z" fill="#08182B"/>
</svg>
