<svg width="144" height="144" viewBox="0 0 144 144" fill="none" xmlns="http://www.w3.org/2000/svg">
<path d="M0 32.0648C0 14.3559 14.3559 0 32.0648 0H111.935C129.644 0 144 14.3559 144 32.0648V111.935C144 129.644 129.644 144 111.935 144H32.0648C14.3559 144 0 129.644 0 111.935V32.0648Z" fill="#FF9500"/>
<path d="M109.214 59.9727C110.881 48.8089 102.385 42.8082 90.7632 38.802L94.5363 23.6751L85.3324 21.3784L81.6629 36.0995C79.2453 35.4951 76.7587 34.9253 74.2894 34.3641L77.9848 19.5393L68.7808 17.2427L65.0077 32.361C62.8233 31.8602 46.4445 27.759 46.4445 27.759L43.9924 37.5932C43.9924 37.5932 50.8392 39.2941 50.6752 39.251C54.4051 40.1834 55.4325 42.7218 54.9663 44.6041L44.6313 86.0304C44.3377 87.2046 43.0167 88.8624 40.4092 88.2148C40.5992 88.258 33.7178 86.5485 33.7178 86.5485L29.1504 97.082L47.6964 101.762L43.8888 117.061L53.0841 119.358L56.8572 104.222C59.3697 104.905 61.8045 105.535 64.1961 106.131L60.4403 121.197L69.6442 123.494L73.4519 108.229C89.1486 111.199 100.951 109.999 105.925 95.8042C109.931 84.3727 105.726 77.7762 97.4632 73.4765C103.481 72.0864 108.005 68.132 109.214 59.9641V59.9727ZM88.1816 89.4668C85.3324 100.898 66.087 94.7163 59.8445 93.1708L64.9041 72.9066C71.1466 74.4607 91.1517 77.5431 88.1816 89.4668ZM91.0308 59.8087C88.432 70.2041 72.4158 64.9201 67.2181 63.625L71.8028 45.243C77.0005 46.5381 93.7333 48.9557 91.0308 59.8001V59.8087Z" fill="white"/>
</svg>
